<mxfile host="Electron" modified="2024-03-11T06:16:33.988Z" agent="Mozilla/5.0 (Windows NT 10.0; Win64; x64) AppleWebKit/537.36 (KHTML, like Gecko) draw.io/24.0.4 Chrome/120.0.6099.109 Electron/28.1.0 Safari/537.36" etag="KqsiyT33kIl9qnu6yhbk" version="24.0.4" type="device">
  <diagram name="1 oldal" id="K7b1IJEUViFOQoUs9O1b">
    <mxGraphModel dx="1062" dy="633" grid="1" gridSize="10" guides="1" tooltips="1" connect="1" arrows="1" fold="1" page="1" pageScale="1" pageWidth="827" pageHeight="1169" math="0" shadow="0">
      <root>
        <mxCell id="0" />
        <mxCell id="1" parent="0" />
        <mxCell id="1reZj5XchrxedKRIuE9x-2" style="edgeStyle=orthogonalEdgeStyle;rounded=1;orthogonalLoop=1;jettySize=auto;html=1;exitX=0.867;exitY=0.507;exitDx=0;exitDy=0;entryX=0;entryY=0.5;entryDx=0;entryDy=0;exitPerimeter=0;curved=0;strokeColor=#F00000;" edge="1" parent="1" source="sJh4d1tqF9a-PDi6P2Vy-3" target="sJh4d1tqF9a-PDi6P2Vy-20">
          <mxGeometry relative="1" as="geometry" />
        </mxCell>
        <mxCell id="sJh4d1tqF9a-PDi6P2Vy-3" value="" style="ellipse;html=1;shape=startState;fillColor=#000000;strokeColor=#ff0000;" parent="1" vertex="1">
          <mxGeometry x="70" y="380" width="30" height="30" as="geometry" />
        </mxCell>
        <mxCell id="sJh4d1tqF9a-PDi6P2Vy-6" value="" style="ellipse;html=1;shape=endState;fillColor=#000000;strokeColor=#ff0000;" parent="1" vertex="1">
          <mxGeometry x="620" y="310" width="30" height="30" as="geometry" />
        </mxCell>
        <mxCell id="1reZj5XchrxedKRIuE9x-5" style="edgeStyle=orthogonalEdgeStyle;rounded=1;orthogonalLoop=1;jettySize=auto;html=1;exitX=0.5;exitY=0;exitDx=0;exitDy=0;entryX=0;entryY=0.5;entryDx=0;entryDy=0;curved=0;strokeColor=#F00000;" edge="1" parent="1" source="sJh4d1tqF9a-PDi6P2Vy-10" target="sJh4d1tqF9a-PDi6P2Vy-6">
          <mxGeometry relative="1" as="geometry" />
        </mxCell>
        <mxCell id="1reZj5XchrxedKRIuE9x-11" value="&lt;i&gt;[GameIsWon]&lt;/i&gt;" style="edgeLabel;html=1;align=center;verticalAlign=middle;resizable=0;points=[];" vertex="1" connectable="0" parent="1reZj5XchrxedKRIuE9x-5">
          <mxGeometry x="-0.1666" y="1" relative="1" as="geometry">
            <mxPoint x="33" y="-14" as="offset" />
          </mxGeometry>
        </mxCell>
        <mxCell id="1reZj5XchrxedKRIuE9x-6" style="edgeStyle=orthogonalEdgeStyle;rounded=1;orthogonalLoop=1;jettySize=auto;html=1;exitX=1;exitY=0.5;exitDx=0;exitDy=0;entryX=0.5;entryY=1;entryDx=0;entryDy=0;curved=0;strokeColor=#F00000;" edge="1" parent="1" source="sJh4d1tqF9a-PDi6P2Vy-10" target="sJh4d1tqF9a-PDi6P2Vy-6">
          <mxGeometry relative="1" as="geometry" />
        </mxCell>
        <mxCell id="1reZj5XchrxedKRIuE9x-12" value="[GameIsLost]" style="edgeLabel;html=1;align=center;verticalAlign=middle;resizable=0;points=[];fontStyle=2" vertex="1" connectable="0" parent="1reZj5XchrxedKRIuE9x-6">
          <mxGeometry x="-0.801" y="2" relative="1" as="geometry">
            <mxPoint x="21" y="-8" as="offset" />
          </mxGeometry>
        </mxCell>
        <mxCell id="1reZj5XchrxedKRIuE9x-7" style="edgeStyle=orthogonalEdgeStyle;rounded=1;orthogonalLoop=1;jettySize=auto;html=1;exitX=0.5;exitY=1;exitDx=0;exitDy=0;entryX=1;entryY=0.5;entryDx=0;entryDy=0;curved=0;strokeColor=#F00000;" edge="1" parent="1" source="sJh4d1tqF9a-PDi6P2Vy-10" target="1reZj5XchrxedKRIuE9x-1">
          <mxGeometry relative="1" as="geometry" />
        </mxCell>
        <mxCell id="1reZj5XchrxedKRIuE9x-13" value="&lt;i&gt;[GameIsOn]&lt;/i&gt;" style="edgeLabel;html=1;align=center;verticalAlign=middle;resizable=0;points=[];" vertex="1" connectable="0" parent="1reZj5XchrxedKRIuE9x-7">
          <mxGeometry x="0.3867" y="2" relative="1" as="geometry">
            <mxPoint x="71" y="-32" as="offset" />
          </mxGeometry>
        </mxCell>
        <mxCell id="sJh4d1tqF9a-PDi6P2Vy-10" value="" style="rhombus;whiteSpace=wrap;html=1;fontColor=#000000;fillColor=#ffffc0;strokeColor=#ff0000;" parent="1" vertex="1">
          <mxGeometry x="500" y="372.5" width="50" height="45" as="geometry" />
        </mxCell>
        <mxCell id="1reZj5XchrxedKRIuE9x-4" style="edgeStyle=orthogonalEdgeStyle;rounded=1;orthogonalLoop=1;jettySize=auto;html=1;exitX=1;exitY=0.5;exitDx=0;exitDy=0;entryX=0;entryY=0.5;entryDx=0;entryDy=0;curved=0;strokeColor=#F00000;" edge="1" parent="1" source="sJh4d1tqF9a-PDi6P2Vy-16" target="sJh4d1tqF9a-PDi6P2Vy-10">
          <mxGeometry relative="1" as="geometry" />
        </mxCell>
        <mxCell id="sJh4d1tqF9a-PDi6P2Vy-16" value="Turns" style="swimlane;fontStyle=1;align=center;verticalAlign=middle;childLayout=stackLayout;horizontal=1;startSize=30;horizontalStack=0;resizeParent=0;resizeLast=1;container=0;fontColor=#000000;collapsible=0;rounded=1;arcSize=30;strokeColor=#ff0000;fillColor=#ffffc0;swimlaneFillColor=#ffffc0;dropTarget=0;" parent="1" vertex="1">
          <mxGeometry x="310" y="365" width="160" height="60" as="geometry" />
        </mxCell>
        <mxCell id="1reZj5XchrxedKRIuE9x-3" style="edgeStyle=orthogonalEdgeStyle;rounded=1;orthogonalLoop=1;jettySize=auto;html=1;exitX=1;exitY=0.5;exitDx=0;exitDy=0;entryX=0;entryY=0.5;entryDx=0;entryDy=0;curved=0;strokeColor=#F00000;" edge="1" parent="1" source="sJh4d1tqF9a-PDi6P2Vy-20" target="sJh4d1tqF9a-PDi6P2Vy-16">
          <mxGeometry relative="1" as="geometry" />
        </mxCell>
        <mxCell id="1reZj5XchrxedKRIuE9x-10" value="play()" style="edgeLabel;html=1;align=center;verticalAlign=middle;resizable=0;points=[];" vertex="1" connectable="0" parent="1reZj5XchrxedKRIuE9x-3">
          <mxGeometry x="-0.2057" relative="1" as="geometry">
            <mxPoint x="2" y="-10" as="offset" />
          </mxGeometry>
        </mxCell>
        <mxCell id="sJh4d1tqF9a-PDi6P2Vy-20" value="Idle (menu)" style="rounded=1;whiteSpace=wrap;html=1;arcSize=40;fontColor=#000000;fillColor=#ffffc0;strokeColor=#ff0000;" parent="1" vertex="1">
          <mxGeometry x="140" y="375" width="120" height="40" as="geometry" />
        </mxCell>
        <mxCell id="1reZj5XchrxedKRIuE9x-8" style="edgeStyle=orthogonalEdgeStyle;rounded=0;orthogonalLoop=1;jettySize=auto;html=1;exitX=0.5;exitY=0;exitDx=0;exitDy=0;entryX=0.5;entryY=1;entryDx=0;entryDy=0;strokeColor=#ff0000;" edge="1" parent="1" source="1reZj5XchrxedKRIuE9x-1" target="sJh4d1tqF9a-PDi6P2Vy-16">
          <mxGeometry relative="1" as="geometry" />
        </mxCell>
        <mxCell id="1reZj5XchrxedKRIuE9x-1" value="MapChange" style="rounded=1;whiteSpace=wrap;html=1;arcSize=40;fontColor=#000000;fillColor=#ffffc0;strokeColor=#ff0000;" vertex="1" parent="1">
          <mxGeometry x="330" y="450" width="120" height="40" as="geometry" />
        </mxCell>
        <mxCell id="1reZj5XchrxedKRIuE9x-14" value="Game" style="shape=umlFrame;whiteSpace=wrap;html=1;pointerEvents=0;" vertex="1" parent="1">
          <mxGeometry x="60" y="280" width="610" height="230" as="geometry" />
        </mxCell>
      </root>
    </mxGraphModel>
  </diagram>
</mxfile>
